<svg width="389" height="169" viewBox="0 0 389 169" xmlns="http://www.w3.org/2000/svg" xmlns:xlink="http://www.w3.org/1999/xlink"><title>Champions icons</title><defs><path id="a" d="M.194 58.1H43.24V.086H.193V58.1z"/><path id="c" d="M86.677 87.79V.45H0v87.34h86.677z"/><path id="e" d="M.077 58.1h43.066V.087H.077z"/><path id="g" d="M87.403 87.792V.452H.683v87.34h86.72z"/><path id="i" d="M.594 58.1H43.64V.086H.594V58.1z"/><path id="k" d="M87.077 87.79V.45H.4v87.34h86.677z"/><path id="m" d="M.323 58.122H43.37V.086H.322z"/><path id="o" d="M86.806.45H.13v87.375h86.676V.45z"/></defs><g fill="none" fill-rule="evenodd"><path fill="#A3684D" d="M50.697 150.984l19.633 8.833V105.27H30.724v54.547l19.633-8.833"/><g transform="translate(28.622 103.35)"><mask id="b" fill="#fff"><use xlink:href="#a"/></mask><path d="M21.547 45.8h.34c.24 0 .48.052.7.152L39.8 53.696V3.552H3.634v50.144l17.21-7.744c.222-.1.46-.15.703-.15M1.913 58.1c-.326 0-.652-.094-.936-.28-.488-.318-.783-.865-.783-1.453V1.82C.194.86.964.085 1.914.085h39.605c.95 0 1.72.776 1.72 1.733v54.547c0 .588-.295 1.135-.785 1.454-.488.322-1.105.37-1.637.13l-19.102-8.595-19.1 8.595c-.225.1-.464.15-.703.15" fill="#A3684D" mask="url(#b)"/></g><path d="M89.618 97.44c0 21.86-17.586 39.58-39.28 39.58-21.692 0-39.278-17.72-39.278-39.58s17.586-39.58 39.28-39.58c21.692 0 39.278 17.72 39.278 39.58" fill="#FEFEFE"/><g transform="translate(7 53.32)"><mask id="d" fill="#fff"><use xlink:href="#c"/></mask><path d="M43.34 8.632c-19.42 0-35.22 15.92-35.22 35.49 0 19.568 15.8 35.488 35.22 35.488 19.42 0 35.218-15.92 35.218-35.49 0-19.568-15.8-35.488-35.22-35.488m0 79.16C19.443 87.79 0 68.2 0 44.12 0 20.04 19.442.45 43.34.45c23.895 0 43.337 19.59 43.337 43.67 0 24.08-19.442 43.67-43.338 43.67" fill="#A3684D" mask="url(#d)"/></g><path d="M30.714 94.412c-.155 0-.247-.062-.423-.186-.246-.166-.545-.27-.927-.27-1.052 0-1.558.716-1.558 2.244v1.154c0 1.6.486 2.213 1.496 2.213.372 0 .733-.094 1.022-.29.175-.115.278-.177.434-.188.268 0 .484.217.484.51 0 .154-.073.31-.216.445-.454.426-1.197.603-1.723.603-1.938 0-2.67-1.33-2.67-3.285V96.17c0-1.882.742-3.285 2.733-3.285.588 0 1.248.176 1.65.56.154.146.238.292.238.438 0 .248-.175.53-.536.53M37.23 100.648c-.32 0-.587-.26-.587-.592v-2.692H33.6v2.692c0 .332-.257.592-.588.592-.32 0-.587-.26-.587-.592v-6.58c0-.32.268-.59.587-.59.33 0 .59.27.59.59v2.827h3.04v-2.826c0-.322.27-.592.59-.592.318 0 .587.27.587.592v6.58c0 .33-.27.59-.59.59M41.582 94.755c-.382.998-.732 2.017-1.052 3.067h2.103c-.32-1.05-.67-2.07-1.05-3.067m2.247 5.893c-.247 0-.495-.146-.567-.468-.103-.436-.227-.872-.34-1.3H40.24c-.122.428-.237.864-.34 1.3-.07.322-.308.468-.546.468-.33 0-.67-.28-.567-.717.536-2.285 1.227-4.374 2.052-6.422.216-.53.484-.634.752-.634.258 0 .557.115.763.634.825 2.048 1.516 4.137 2.053 6.423.102.437-.248.718-.578.718M51.925 100.097c0 .3-.248.55-.547.55-.3 0-.546-.25-.546-.55v-4.593l-1.66 3.522c-.103.23-.3.344-.527.344-.216 0-.423-.114-.537-.344l-1.65-3.522v4.604c0 .3-.247.54-.546.54-.29 0-.536-.24-.536-.54v-6.672c0-.312.247-.55.567-.55.29 0 .444.103.567.352l2.145 4.48 2.167-4.51c.123-.26.33-.323.547-.323.317 0 .555.25.555.55v6.662zM57.317 95.1c0-.48-.257-1.01-1.278-1.01h-1.29v2.484h1.413c.845 0 1.154-.467 1.154-.988V95.1zm-1.114 2.555H54.75v2.4c0 .333-.26.593-.59.593-.318 0-.586-.26-.586-.592V93.57c0-.322.268-.592.587-.592h1.96c1.784 0 2.373 1.08 2.373 2.1v.53c0 1.205-.835 2.047-2.29 2.047zM60.306 100.648c-.318 0-.587-.26-.587-.592v-6.58c0-.32.268-.59.586-.59.33 0 .588.27.588.59v6.58c0 .332-.258.592-.588.592M66.483 95.69c0-.976-.34-1.725-1.464-1.725-1.125 0-1.456.738-1.456 1.726v2.152c0 .988.34 1.735 1.455 1.735 1.123 0 1.463-.747 1.463-1.735v-2.15zm-1.464 4.968c-1.97 0-2.63-1.402-2.63-2.816v-2.15c0-1.414.66-2.807 2.63-2.807 1.97 0 2.64 1.393 2.64 2.806v2.152c0 1.414-.67 2.816-2.64 2.816zM73.835 100.648c-.247 0-.433-.084-.567-.29l-3.032-5.02v4.77c0 .3-.237.54-.536.54-.3 0-.547-.24-.547-.54v-6.672c0-.302.227-.55.578-.55.248 0 .445.103.578.31l3.022 5.01v-4.77c0-.302.248-.55.547-.55.288 0 .536.248.536.55v6.67c0 .292-.227.542-.578.542M33.436 105.863c0-.48-.257-1.01-1.278-1.01h-1.29v2.485h1.414c.845 0 1.154-.468 1.154-.988v-.487zm-1.114 2.556h-1.454v2.4c0 .332-.258.592-.588.592-.32 0-.587-.26-.587-.592v-6.486c0-.322.268-.592.587-.592h1.96c1.783 0 2.372 1.08 2.372 2.1v.53c0 1.205-.835 2.047-2.29 2.047zM37.952 105.52c-.382.996-.732 2.016-1.052 3.065h2.103c-.32-1.05-.67-2.07-1.05-3.066m2.248 5.892c-.247 0-.495-.146-.566-.468-.104-.436-.228-.873-.34-1.3H36.61c-.122.427-.236.864-.34 1.3-.07.322-.308.468-.545.468-.33 0-.67-.28-.568-.717.537-2.287 1.228-4.375 2.053-6.423.217-.53.484-.634.752-.634.258 0 .557.115.764.634.824 2.048 1.516 4.136 2.052 6.423.103.436-.247.717-.577.717M45.5 105.79c0-.54-.36-.936-1.226-.936h-1.352v2.35h1.32c.815 0 1.258-.417 1.258-.978v-.437zm.64 5.622c-.196 0-.382-.093-.516-.354-.433-.935-.96-1.86-1.527-2.774h-1.175v2.535c0 .332-.258.592-.588.592-.32 0-.587-.26-.587-.593v-6.486c0-.322.267-.592.587-.592h1.96c1.63 0 2.382.81 2.382 2.047v.436c0 .842-.454 1.56-1.34 1.84.505.83.97 1.662 1.36 2.505.218.468-.174.842-.556.842zM52.625 104.885h-1.752v5.935c0 .332-.268.592-.59.592-.33 0-.587-.26-.587-.592v-5.935h-1.763c-.31 0-.567-.25-.567-.57 0-.313.257-.573.567-.573h4.692c.32 0 .568.26.568.572 0 .32-.248.57-.568.57M58.812 111.412c-.248 0-.433-.084-.567-.29l-3.032-5.02v4.77c0 .3-.237.54-.537.54-.298 0-.547-.24-.547-.54v-6.673c0-.302.227-.55.578-.55.247 0 .443.102.577.31l3.022 5.01v-4.77c0-.302.248-.55.547-.55.288 0 .536.248.536.55v6.67c0 .292-.227.542-.578.542M65.07 111.318h-3.475c-.31 0-.556-.25-.556-.56v-6.444c0-.312.245-.572.555-.572h3.33c.31 0 .56.26.56.572 0 .31-.25.56-.56.56h-2.71v2.11h2.464c.298 0 .536.25.536.552 0 .3-.238.55-.537.55h-2.466v2.11h2.857c.31 0 .557.25.557.56 0 .312-.246.562-.556.562M70.576 105.79c0-.54-.36-.936-1.226-.936H68v2.35h1.32c.813 0 1.256-.417 1.256-.978v-.437zm.64 5.622c-.195 0-.382-.093-.515-.354-.433-.935-.96-1.86-1.526-2.774H68v2.535c0 .332-.26.592-.59.592-.32 0-.587-.26-.587-.593v-6.486c0-.322.267-.592.588-.592h1.96c1.63 0 2.383.81 2.383 2.047v.436c0 .842-.454 1.56-1.342 1.84.508.83.97 1.662 1.363 2.505.217.468-.175.842-.557.842zM36.538 87.534c0-.587-.468-.964-1.28-.964h-1.54v2.202h1.654c.885 0 1.166-.43 1.166-1.007v-.23zm-.302-3.252c0-.545-.343-.944-1.103-.944h-1.416V85.5h1.062c.842 0 1.456-.22 1.456-.934v-.284zm-.843 5.592h-2.27c-.322 0-.593-.263-.593-.598v-6.452c0-.325.27-.598.593-.598h2.03c1.645 0 2.27.913 2.27 1.9v.303c0 .712-.333 1.238-.968 1.51.812.252 1.27.923 1.27 1.678v.295c0 1.1-.614 1.96-2.332 1.96zM42.94 84.293c0-.546-.364-.944-1.238-.944h-1.364v2.37h1.333c.823 0 1.27-.42 1.27-.986v-.44zm.646 5.675c-.198 0-.385-.094-.52-.356-.438-.944-.97-1.878-1.542-2.8h-1.186v2.558c0 .336-.26.598-.593.598-.324 0-.594-.262-.594-.598v-6.546c0-.326.27-.598.595-.598h1.978c1.645 0 2.405.82 2.405 2.067v.44c0 .85-.458 1.574-1.354 1.857.51.84.98 1.68 1.374 2.528.22.473-.177.85-.562.85zM49.52 84.964c0-.986-.343-1.74-1.478-1.74s-1.468.744-1.468 1.74v2.17c0 1 .344 1.754 1.468 1.754 1.135 0 1.478-.755 1.478-1.753v-2.17zm-1.478 5.015c-1.99 0-2.655-1.417-2.655-2.845v-2.17c0-1.428.666-2.834 2.655-2.834 1.988 0 2.665 1.407 2.665 2.834v2.17c0 1.43-.677 2.845-2.665 2.845zM56.943 89.97c-.25 0-.437-.085-.573-.295l-3.06-5.068v4.816c0 .304-.24.546-.542.546-.302 0-.552-.243-.552-.547v-6.735c0-.304.23-.557.583-.557.25 0 .447.107.582.317l3.05 5.056v-4.815c0-.304.25-.557.552-.557.292 0 .543.254.543.558v6.735c0 .294-.23.546-.584.546M63.17 89.874h-4.02c-.323 0-.552-.252-.552-.566 0-.2.073-.39.177-.556l3.342-5.383H59.16c-.302 0-.55-.252-.55-.567 0-.314.248-.577.55-.577h3.998c.344 0 .552.252.552.577 0 .167-.094.367-.188.514L60.15 88.73l3.02.01c.3 0 .55.253.55.568 0 .314-.25.566-.55.566M68.863 89.874h-3.508c-.313 0-.563-.252-.563-.566v-6.505c0-.314.25-.577.563-.577h3.362c.313 0 .563.263.563.577 0 .315-.25.566-.563.566H65.98v2.13h2.488c.302 0 .542.25.542.555 0 .305-.24.556-.542.556h-2.49v2.13h2.885c.313 0 .562.253.562.568 0 .314-.25.566-.562.566" fill="#A3684D"/><g><path fill="#A6A9AB" d="M146.196 150.745l19.643 8.833V105.03h-39.626v54.548l19.643-8.833"/><g transform="translate(124.72 103.35)"><mask id="f" fill="#fff"><use xlink:href="#e"/></mask><path d="M21.44 45.8h.34c.24 0 .48.05.7.15l17.222 7.746V3.552H3.518v50.144l17.22-7.745c.22-.1.46-.15.702-.15M1.797 58.1c-.327 0-.653-.093-.937-.28-.49-.32-.783-.866-.783-1.452V1.818c0-.955.77-1.73 1.72-1.73h39.625c.95 0 1.72.775 1.72 1.73v54.55c0 .586-.294 1.133-.783 1.453-.49.322-1.107.37-1.64.13l-19.11-8.596L2.5 57.95c-.226.1-.464.15-.703.15" fill="#A6A9AB" mask="url(#f)"/></g><path d="M185.628 97.44c0 21.86-17.594 39.58-39.298 39.58s-39.3-17.72-39.3-39.58 17.596-39.58 39.3-39.58c21.704 0 39.298 17.72 39.298 39.58" fill="#FEFEFE"/><g transform="translate(102.286 53.32)"><mask id="h" fill="#fff"><use xlink:href="#g"/></mask><path d="M44.044 8.632c-19.43 0-35.237 15.92-35.237 35.49 0 19.568 15.807 35.488 35.237 35.488S79.28 63.69 79.28 44.122c0-19.57-15.807-35.49-35.236-35.49m0 79.16c-23.91 0-43.36-19.592-43.36-43.67 0-24.08 19.45-43.67 43.36-43.67 23.908 0 43.36 19.59 43.36 43.67 0 24.078-19.452 43.67-43.36 43.67" fill="#A6A9AB" mask="url(#h)"/></g><path d="M125.894 94.457c-.154 0-.247-.062-.423-.186-.246-.165-.545-.27-.927-.27-1.053 0-1.56.717-1.56 2.245V97.4c0 1.6.487 2.212 1.497 2.212.372 0 .733-.094 1.022-.29.175-.115.278-.177.434-.188.268 0 .485.218.485.51 0 .155-.072.31-.216.446-.454.426-1.197.603-1.724.603-1.94 0-2.672-1.33-2.672-3.285v-1.194c0-1.88.743-3.284 2.735-3.284.588 0 1.248.176 1.65.56.155.146.238.292.238.438 0 .248-.174.53-.536.53M132.414 100.693c-.32 0-.588-.26-.588-.592v-2.69h-3.044v2.69c0 .333-.258.593-.59.593-.317 0-.586-.26-.586-.592v-6.58c0-.32.27-.59.587-.59.33 0 .59.27.59.59v2.828h3.043V93.52c0-.32.27-.59.588-.59.32 0 .588.27.588.59v6.58c0 .333-.268.593-.588.593M136.767 94.8c-.382.997-.732 2.017-1.052 3.066h2.104c-.32-1.05-.67-2.07-1.053-3.066m2.25 5.893c-.248 0-.496-.146-.567-.468-.104-.436-.228-.872-.34-1.3h-2.684c-.124.428-.238.864-.34 1.3-.073.322-.31.468-.547.468-.33 0-.673-.28-.57-.717.538-2.286 1.23-4.376 2.054-6.423.217-.53.485-.634.753-.634.258 0 .557.114.764.633.826 2.047 1.518 4.137 2.055 6.423.102.436-.248.717-.578.717M147.116 100.142c0 .3-.25.55-.548.55-.3 0-.546-.25-.546-.55V95.55l-1.66 3.52c-.104.23-.3.345-.528.345-.216 0-.423-.115-.537-.344l-1.65-3.52v4.603c0 .3-.248.54-.548.54-.29 0-.537-.24-.537-.54V93.48c0-.312.248-.55.568-.55.29 0 .444.104.568.353l2.146 4.48 2.168-4.512c.123-.258.33-.32.547-.32.318 0 .556.25.556.55v6.662zM152.51 95.144c0-.48-.257-1.01-1.28-1.01h-1.29v2.485h1.415c.846 0 1.156-.47 1.156-.99v-.486zm-1.114 2.556h-1.455v2.4c0 .333-.257.593-.587.593-.32 0-.588-.26-.588-.592v-6.485c0-.322.268-.592.588-.592h1.96c1.785 0 2.374 1.08 2.374 2.1v.53c0 1.205-.836 2.047-2.29 2.047zM155.5 100.693c-.318 0-.586-.26-.586-.592v-6.58c0-.32.268-.59.587-.59.33 0 .59.27.59.59v6.58c0 .333-.26.593-.59.593M161.68 95.735c0-.976-.34-1.725-1.464-1.725-1.125 0-1.456.738-1.456 1.725v2.152c0 .987.34 1.735 1.456 1.735 1.124 0 1.465-.748 1.465-1.735v-2.152zm-1.464 4.968c-1.97 0-2.63-1.403-2.63-2.816v-2.152c0-1.413.66-2.805 2.63-2.805 1.97 0 2.642 1.392 2.642 2.805v2.152c0 1.413-.67 2.816-2.642 2.816zM169.037 100.693c-.248 0-.434-.084-.568-.29l-3.034-5.02v4.77c0 .3-.237.54-.537.54-.3 0-.548-.24-.548-.54V93.48c0-.3.227-.55.578-.55.248 0 .444.104.578.31l3.023 5.01v-4.77c0-.3.25-.55.548-.55.29 0 .537.25.537.55v6.672c0 .29-.227.54-.578.54M128.618 105.907c0-.478-.258-1.008-1.28-1.008h-1.29v2.483h1.415c.845 0 1.155-.468 1.155-.988v-.488zm-1.115 2.557h-1.455v2.4c0 .333-.258.593-.588.593-.32 0-.588-.26-.588-.592v-6.486c0-.323.27-.593.588-.593h1.96c1.785 0 2.374 1.08 2.374 2.1v.53c0 1.205-.836 2.047-2.29 2.047zM133.136 105.564c-.382.997-.733 2.016-1.052 3.066h2.104c-.32-1.05-.67-2.07-1.052-3.066m2.25 5.893c-.248 0-.496-.146-.568-.468-.103-.438-.227-.874-.34-1.3h-2.684c-.123.426-.237.862-.34 1.3-.072.32-.31.467-.546.467-.33 0-.672-.28-.57-.717.538-2.287 1.23-4.376 2.055-6.423.217-.53.485-.634.753-.634.258 0 .557.114.764.634.825 2.047 1.516 4.136 2.053 6.423.103.436-.247.717-.577.717M140.688 105.834c0-.54-.36-.935-1.228-.935h-1.352v2.348h1.32c.816 0 1.26-.417 1.26-.977v-.436zm.64 5.623c-.196 0-.382-.094-.517-.354-.432-.936-.958-1.86-1.526-2.775h-1.176v2.536c0 .333-.258.593-.588.593-.32 0-.587-.26-.587-.593v-6.485c0-.323.267-.593.587-.593h1.96c1.63 0 2.384.81 2.384 2.047v.437c0 .842-.454 1.56-1.34 1.84.504.832.97 1.663 1.36 2.505.218.468-.175.842-.556.842zM147.816 104.93h-1.753v5.935c0 .332-.27.592-.59.592-.33 0-.587-.26-.587-.592v-5.935h-1.764c-.31 0-.568-.25-.568-.57 0-.313.258-.573.568-.573h4.694c.32 0 .568.26.568.572 0 .32-.248.57-.568.57M154.006 111.457c-.248 0-.434-.084-.567-.292l-3.035-5.02v4.77c0 .302-.237.542-.537.542-.298 0-.547-.24-.547-.54v-6.673c0-.302.23-.55.58-.55.247 0 .444.103.577.31l3.023 5.01v-4.77c0-.302.25-.55.548-.55.288 0 .536.248.536.55v6.672c0 .29-.227.54-.578.54M160.268 111.363h-3.478c-.31 0-.556-.25-.556-.56v-6.444c0-.313.246-.573.556-.573h3.333c.31 0 .558.26.558.572 0 .31-.247.56-.557.56h-2.713v2.11h2.466c.3 0 .537.248.537.55 0 .302-.238.55-.537.55h-2.466v2.11h2.858c.31 0 .557.25.557.562 0 .31-.247.56-.557.56M165.776 105.834c0-.54-.36-.935-1.227-.935h-1.353v2.348h1.32c.815 0 1.26-.417 1.26-.977v-.436zm.64 5.623c-.195 0-.382-.094-.516-.354-.433-.936-.96-1.86-1.527-2.775h-1.176v2.536c0 .333-.258.593-.588.593-.322 0-.59-.26-.59-.593v-6.485c0-.323.268-.593.59-.593h1.96c1.63 0 2.383.81 2.383 2.047v.437c0 .842-.454 1.56-1.342 1.84.508.832.97 1.663 1.363 2.505.217.468-.175.842-.557.842zM132.466 90.232c-.75 0-1.385-.084-1.97-.315-.27-.105-.394-.325-.394-.545 0-.294.197-.567.52-.567.197 0 .386.148.854.252.23.052.51.095.896.095 1.167 0 1.667-.493 1.667-1.218 0-.544-.272-.796-1.012-1.007-.542-.156-1.447-.273-1.968-.545-.543-.283-.927-.776-.927-1.647 0-1.5 1.114-2.34 2.53-2.34.626 0 1.178.074 1.71.263.27.104.405.315.405.535 0 .294-.208.577-.552.577-.187 0-.343-.126-.73-.21-.186-.04-.426-.073-.75-.073-.905 0-1.427.43-1.427 1.112 0 .597.354.807 1.03.996.667.178 1.564.272 2.085.608.53.356.79.87.79 1.616 0 1.584-1.134 2.412-2.76 2.412M137.1 90.232c-.322 0-.593-.262-.593-.598v-6.64c0-.326.27-.6.594-.6.334 0 .594.274.594.6v6.64c0 .336-.26.598-.593.598M143.402 90.138h-3.48c-.31 0-.56-.252-.56-.567v-6.577c0-.325.27-.598.593-.598.333 0 .592.273.592.598v6.012h2.855c.313 0 .563.252.563.566 0 .316-.25.568-.563.568M147.757 89.613c-.157.452-.418.62-.72.62-.332 0-.572-.158-.73-.62-.8-2.255-1.49-4.406-2.072-6.452-.134-.46.23-.764.583-.764.24 0 .47.136.552.44.49 1.7 1.053 3.557 1.7 5.414.655-1.868 1.238-3.734 1.738-5.445.084-.283.292-.41.51-.41.345 0 .688.284.563.714-.593 2.066-1.31 4.227-2.123 6.503M154.932 90.138h-3.51c-.312 0-.562-.252-.562-.567v-6.503c0-.314.25-.577.562-.577h3.364c.313 0 .564.263.564.577 0 .315-.25.566-.564.566h-2.74v2.13h2.49c.303 0 .543.252.543.556 0 .304-.24.555-.543.555h-2.49v2.13h2.885c.314 0 .563.252.563.566 0 .316-.25.568-.563.568M160.495 84.557c0-.546-.365-.944-1.24-.944h-1.364v2.37h1.334c.823 0 1.27-.42 1.27-.985v-.44zm.645 5.675c-.197 0-.385-.094-.52-.356-.438-.945-.97-1.878-1.543-2.8h-1.186v2.558c0 .336-.26.598-.593.598-.324 0-.594-.262-.594-.598v-6.546c0-.326.27-.598.594-.598h1.98c1.645 0 2.405.82 2.405 2.067v.44c0 .85-.458 1.574-1.354 1.857.51.84.98 1.68 1.375 2.528.22.473-.177.85-.563.85z" fill="#A6A9AB"/></g><g><path fill="#FFCC02" d="M245.587 150.744l19.633 8.834V105.03h-39.605v54.548l19.633-8.834"/><g transform="translate(222.757 103.35)"><mask id="j" fill="#fff"><use xlink:href="#i"/></mask><path d="M21.947 45.8h.34c.24 0 .48.052.7.152L40.2 53.696V3.552H4.034v50.144l17.21-7.744c.222-.1.46-.15.703-.15M2.314 58.1c-.327 0-.653-.094-.936-.28-.49-.318-.784-.865-.784-1.453V1.82c0-.958.77-1.734 1.72-1.734H41.92c.95 0 1.72.776 1.72 1.733v54.547c0 .588-.295 1.135-.784 1.454-.49.322-1.105.37-1.638.13l-19.1-8.595L3.014 57.95c-.224.1-.463.15-.7.15" fill="#FFCC02" mask="url(#j)"/></g><path d="M284.153 97.44c0 21.86-17.586 39.58-39.28 39.58-21.692 0-39.28-17.72-39.28-39.58s17.588-39.58 39.28-39.58c21.694 0 39.28 17.72 39.28 39.58" fill="#FEFEFE"/><g transform="translate(201.134 53.32)"><mask id="l" fill="#fff"><use xlink:href="#k"/></mask><path d="M43.74 8.632c-19.42 0-35.22 15.92-35.22 35.49 0 19.568 15.8 35.488 35.22 35.488 19.42 0 35.22-15.92 35.22-35.49 0-19.568-15.8-35.488-35.22-35.488m0 79.16C19.84 87.79.4 68.2.4 44.12.4 20.04 19.843.45 43.74.45c23.896 0 43.338 19.59 43.338 43.67 0 24.08-19.442 43.67-43.34 43.67" fill="#FFCC02" mask="url(#l)"/></g><path d="M235.87 89.887c-1.95 0-2.683-1.33-2.683-3.285v-1.195c0-1.88.743-3.283 2.733-3.283.6 0 1.28.166 1.693.57.165.136.237.29.237.448 0 .26-.186.508-.537.52-.165 0-.28-.083-.454-.198-.238-.177-.558-.27-.94-.27-1.05 0-1.556.707-1.556 2.234v1.164c0 1.6.485 2.224 1.505 2.224.99 0 1.34-.614 1.34-1.507v-.437h-.95c-.308 0-.545-.25-.545-.552 0-.3.237-.55.546-.55h1.528c.33 0 .557.25.557.593v.915c0 1.413-.702 2.61-2.476 2.61M243.685 84.93c0-.977-.34-1.726-1.464-1.726-1.123 0-1.454.737-1.454 1.725v2.15c0 .988.34 1.735 1.455 1.735 1.125 0 1.465-.747 1.465-1.735v-2.15zm-1.464 4.967c-1.97 0-2.63-1.403-2.63-2.817v-2.15c0-1.414.66-2.807 2.63-2.807 1.97 0 2.64 1.393 2.64 2.806v2.15c0 1.414-.67 2.817-2.64 2.817zM250.357 89.793h-3.445c-.31 0-.557-.25-.557-.56v-6.518c0-.322.268-.59.588-.59.33 0 .588.268.588.59v5.955h2.827c.31 0 .556.25.556.562 0 .31-.246.56-.556.56M255.904 85.054c0-.925-.28-1.704-1.557-1.704h-1.32v5.33h1.32c1.29 0 1.557-.78 1.557-1.693v-1.933zm-1.485 4.74h-1.98c-.322 0-.59-.26-.59-.593v-6.39c0-.323.268-.594.59-.594h1.98c2.3 0 2.66 1.684 2.66 2.827v1.944c0 1.143-.36 2.806-2.66 2.806zM225.25 94.415c-.156 0-.25-.062-.424-.186-.248-.167-.546-.27-.928-.27-1.053 0-1.558.715-1.558 2.243v1.154c0 1.6.485 2.213 1.495 2.213.372 0 .733-.094 1.022-.29.175-.115.278-.177.433-.187.27 0 .485.217.485.51 0 .155-.073.31-.216.445-.455.426-1.198.604-1.725.604-1.94 0-2.67-1.33-2.67-3.286v-1.194c0-1.88.742-3.284 2.733-3.284.588 0 1.247.177 1.65.562.154.144.237.29.237.436 0 .25-.175.53-.536.53M231.766 100.65c-.32 0-.588-.26-.588-.59v-2.693h-3.043v2.692c0 .33-.257.59-.588.59-.32 0-.587-.26-.587-.59v-6.58c0-.322.268-.592.587-.592.33 0 .588.27.588.592v2.827h3.043V93.48c0-.322.268-.592.588-.592.32 0 .587.27.587.592v6.58c0 .33-.268.59-.587.59M236.116 94.758c-.382.998-.732 2.017-1.05 3.067h2.102c-.32-1.05-.67-2.07-1.052-3.067m2.25 5.893c-.248 0-.497-.145-.568-.467-.103-.436-.227-.872-.34-1.3h-2.682c-.124.428-.238.864-.34 1.3-.073.322-.31.468-.547.468-.33 0-.672-.28-.57-.716.538-2.286 1.23-4.375 2.054-6.422.217-.53.484-.635.753-.635.258 0 .556.116.763.635.825 2.047 1.516 4.136 2.052 6.422.103.437-.247.717-.577.717M246.46 100.1c0 .3-.248.552-.547.552-.3 0-.546-.25-.546-.552v-4.593l-1.66 3.523c-.104.23-.3.343-.527.343-.217 0-.423-.114-.537-.343l-1.65-3.523v4.604c0 .302-.247.542-.547.542-.288 0-.535-.24-.535-.54v-6.673c0-.313.248-.552.568-.552.29 0 .443.104.567.353l2.145 4.48 2.166-4.51c.124-.26.33-.322.547-.322.32 0 .557.25.557.55v6.662zM251.852 95.102c0-.48-.258-1.01-1.28-1.01h-1.288v2.485h1.413c.845 0 1.155-.467 1.155-.988V95.1zm-1.114 2.556h-1.454v2.4c0 .333-.258.593-.588.593-.32 0-.588-.26-.588-.59v-6.487c0-.32.27-.592.588-.592h1.96c1.783 0 2.372 1.082 2.372 2.1v.53c0 1.206-.836 2.048-2.29 2.048zM254.84 100.65c-.318 0-.586-.26-.586-.59v-6.58c0-.322.268-.592.587-.592.33 0 .59.27.59.592v6.58c0 .33-.26.59-.59.59M261.018 95.694c0-.977-.34-1.726-1.464-1.726-1.124 0-1.455.738-1.455 1.726v2.15c0 .99.34 1.736 1.454 1.736 1.124 0 1.464-.747 1.464-1.735v-2.15zm-1.464 4.967c-1.97 0-2.63-1.4-2.63-2.815v-2.15c0-1.414.66-2.807 2.63-2.807 1.97 0 2.64 1.393 2.64 2.806v2.15c0 1.415-.67 2.817-2.64 2.817zM268.37 100.65c-.247 0-.433-.083-.567-.29l-3.032-5.02v4.77c0 .302-.236.54-.536.54-.298 0-.546-.238-.546-.54v-6.67c0-.303.227-.552.578-.552.247 0 .443.104.577.312l3.022 5.01v-4.77c0-.303.248-.552.547-.552.288 0 .536.25.536.55v6.673c0 .29-.227.54-.578.54M227.97 105.866c0-.48-.257-1.01-1.278-1.01h-1.29v2.485h1.414c.845 0 1.155-.466 1.155-.987v-.487zm-1.113 2.556h-1.454v2.4c0 .333-.258.593-.588.593-.32 0-.588-.26-.588-.592v-6.486c0-.322.27-.592.588-.592h1.96c1.783 0 2.372 1.08 2.372 2.1v.53c0 1.206-.836 2.047-2.29 2.047zM232.487 105.522c-.382.998-.732 2.017-1.052 3.067h2.103c-.32-1.05-.67-2.07-1.05-3.068m2.247 5.893c-.247 0-.495-.146-.567-.468-.103-.436-.227-.873-.34-1.3h-2.682c-.123.427-.238.864-.34 1.3-.072.322-.31.468-.546.468-.33 0-.672-.28-.568-.717.536-2.287 1.227-4.375 2.052-6.423.217-.53.485-.634.753-.634.258 0 .557.116.763.635.825 2.048 1.516 4.136 2.053 6.423.102.437-.248.717-.578.717M240.035 105.792c0-.54-.36-.935-1.227-.935h-1.352v2.35h1.32c.815 0 1.26-.417 1.26-.978v-.438zm.64 5.623c-.196 0-.382-.093-.517-.354-.433-.934-.958-1.858-1.526-2.773h-1.176v2.535c0 .334-.257.593-.587.593-.32 0-.588-.26-.588-.593v-6.484c0-.322.267-.593.587-.593h1.958c1.63 0 2.383.81 2.383 2.047v.437c0 .84-.453 1.558-1.34 1.838.505.832.97 1.663 1.362 2.506.217.467-.176.84-.557.84zM247.16 104.89h-1.752v5.933c0 .332-.27.592-.59.592-.33 0-.587-.26-.587-.592v-5.934h-1.762c-.31 0-.567-.252-.567-.573 0-.312.258-.572.568-.572h4.692c.32 0 .568.26.568.572 0 .32-.25.572-.568.572M253.347 111.415c-.248 0-.434-.084-.567-.29l-3.032-5.02v4.77c0 .3-.237.54-.537.54-.298 0-.546-.24-.546-.54v-6.672c0-.302.228-.55.578-.55.248 0 .444.102.578.31l3.02 5.01v-4.77c0-.302.25-.55.548-.55.29 0 .537.248.537.55v6.67c0 .292-.228.542-.578.542M259.605 111.32h-3.475c-.31 0-.557-.25-.557-.56v-6.443c0-.312.247-.572.557-.572h3.33c.31 0 .56.26.56.572 0 .31-.25.562-.56.562h-2.71v2.108h2.464c.3 0 .536.25.536.55 0 .302-.237.55-.536.55h-2.465v2.11h2.855c.31 0 .557.25.557.563 0 .31-.247.56-.557.56M265.11 105.792c0-.54-.36-.935-1.226-.935h-1.35v2.35h1.32c.813 0 1.257-.417 1.257-.978v-.438zm.64 5.623c-.194 0-.38-.093-.515-.354-.433-.934-.96-1.858-1.526-2.773h-1.177v2.535c0 .334-.258.593-.588.593-.32 0-.587-.26-.587-.593v-6.484c0-.322.267-.593.587-.593h1.96c1.63 0 2.383.81 2.383 2.047v.437c0 .84-.455 1.558-1.342 1.838.506.832.97 1.663 1.362 2.506.217.467-.176.84-.557.84z" fill="#FFCC02"/></g><g><path fill="#5B5C5B" d="M339.712 150.785l19.633 8.837v-54.57H319.74v54.57l19.632-8.837"/><g transform="translate(317.152 102.832)"><mask id="n" fill="#fff"><use xlink:href="#m"/></mask><path d="M21.676 45.818h.34c.24 0 .48.05.7.15l17.213 7.748V3.554H3.762v50.162l17.21-7.747c.222-.1.46-.152.703-.152M2.043 58.122c-.327 0-.653-.094-.936-.28-.49-.32-.784-.866-.784-1.453V1.82c0-.957.77-1.734 1.72-1.734H41.65c.948 0 1.72.777 1.72 1.734v54.57c0 .586-.296 1.133-.785 1.453-.49.32-1.105.37-1.638.13l-19.1-8.6-19.103 8.6c-.224.1-.463.15-.7.15" fill="#5B5C5B" mask="url(#n)"/></g><path d="M378.277 96.92c0 21.867-17.585 39.594-39.28 39.594-21.692 0-39.278-17.727-39.278-39.594s17.585-39.595 39.278-39.595c21.694 0 39.28 17.728 39.28 39.595" fill="#FEFEFE"/><g transform="translate(295.53 52.782)"><mask id="p" fill="#fff"><use xlink:href="#o"/></mask><path d="M43.468 8.636c-19.42 0-35.22 15.926-35.22 35.502s15.8 35.502 35.22 35.502c19.42 0 35.22-15.926 35.22-35.502s-15.8-35.502-35.22-35.502m0 79.19c-23.897 0-43.34-19.6-43.34-43.688S19.572.45 43.47.45c23.897 0 43.338 19.6 43.338 43.688s-19.44 43.687-43.338 43.687" fill="#5B5C5B" mask="url(#p)"/></g><g fill="#5B5C5B"><path d="M319.105 94.03c-.154 0-.247-.062-.423-.186-.247-.166-.546-.27-.928-.27-1.052 0-1.557.716-1.557 2.245v1.153c0 1.6.485 2.214 1.495 2.214.37 0 .733-.094 1.022-.29.174-.115.278-.177.433-.188.268 0 .484.217.484.51 0 .155-.07.31-.215.445-.454.426-1.196.604-1.723.604-1.94 0-2.67-1.332-2.67-3.287v-1.195c0-1.882.74-3.286 2.732-3.286.588 0 1.248.177 1.65.562.155.145.238.29.238.437 0 .25-.176.53-.537.53M325.622 100.27c-.32 0-.588-.26-.588-.594v-2.693h-3.042v2.693c0 .333-.258.593-.59.593-.317 0-.586-.26-.586-.594v-6.582c0-.322.27-.59.587-.59.33 0 .59.268.59.59v2.828h3.04v-2.828c0-.322.27-.59.59-.59.32 0 .587.268.587.59v6.582c0 .333-.268.593-.588.593M329.973 94.373c-.382.998-.732 2.018-1.052 3.068h2.104c-.32-1.05-.67-2.07-1.05-3.067m2.248 5.896c-.248 0-.496-.147-.567-.47-.104-.436-.228-.872-.34-1.3h-2.683c-.123.428-.238.864-.34 1.3-.072.323-.31.47-.546.47-.33 0-.67-.282-.568-.72.536-2.286 1.228-4.376 2.052-6.424.217-.53.485-.634.753-.634.258 0 .557.115.763.634.825 2.048 1.516 4.138 2.053 6.425.1.438-.248.72-.578.72M340.316 99.718c0 .3-.248.55-.547.55-.3 0-.547-.25-.547-.55v-4.595l-1.66 3.523c-.103.23-.3.344-.527.344-.216 0-.423-.114-.536-.344l-1.65-3.523v4.605c0 .3-.248.54-.547.54-.288 0-.536-.24-.536-.54v-6.674c0-.313.248-.552.567-.552.29 0 .444.104.567.354l2.147 4.48 2.166-4.512c.123-.26.33-.322.547-.322.32 0 .556.25.556.552v6.664zM345.71 94.717c0-.48-.26-1.01-1.28-1.01h-1.29v2.486h1.414c.845 0 1.155-.468 1.155-.988v-.488zm-1.115 2.558h-1.455v2.4c0 .334-.257.594-.587.594-.32 0-.588-.26-.588-.594v-6.488c0-.322.268-.592.588-.592h1.96c1.783 0 2.37 1.08 2.37 2.1v.53c0 1.206-.834 2.05-2.288 2.05zM348.698 100.27c-.32 0-.587-.26-.587-.594v-6.582c0-.322.27-.59.588-.59.33 0 .587.268.587.59v6.582c0 .333-.257.593-.587.593M354.874 95.31c0-.978-.34-1.727-1.464-1.727-1.124 0-1.455.738-1.455 1.726v2.15c0 .99.34 1.737 1.455 1.737 1.124 0 1.464-.748 1.464-1.736v-2.15zm-1.464 4.97c-1.97 0-2.63-1.404-2.63-2.82v-2.15c0-1.414.66-2.808 2.63-2.808 1.97 0 2.64 1.394 2.64 2.807v2.15c0 1.416-.67 2.82-2.64 2.82zM362.227 100.27c-.248 0-.434-.085-.567-.293l-3.032-5.02v4.77c0 .302-.237.542-.537.542-.298 0-.546-.24-.546-.542v-6.675c0-.302.228-.55.578-.55.248 0 .444.104.578.31l3.02 5.013v-4.773c0-.302.25-.55.548-.55.29 0 .537.248.537.55v6.675c0 .29-.228.54-.578.54M321.828 105.485c0-.48-.258-1.01-1.28-1.01h-1.29v2.486h1.415c.845 0 1.155-.467 1.155-.987v-.488zm-1.114 2.557h-1.455v2.402c0 .333-.258.593-.588.593-.32 0-.588-.26-.588-.593v-6.488c0-.322.268-.592.588-.592h1.96c1.783 0 2.37 1.08 2.37 2.1v.53c0 1.206-.834 2.048-2.288 2.048zM326.343 105.14c-.382 1-.732 2.02-1.05 3.07h2.102c-.32-1.05-.67-2.07-1.052-3.07m2.25 5.897c-.248 0-.497-.146-.568-.468-.103-.438-.227-.875-.34-1.3h-2.682c-.124.425-.238.862-.34 1.3-.073.32-.31.467-.547.467-.33 0-.67-.28-.568-.718.537-2.29 1.228-4.378 2.053-6.426.218-.53.485-.634.754-.634.258 0 .556.114.763.634.825 2.048 1.516 4.137 2.052 6.425.102.436-.248.717-.578.717M333.892 105.412c0-.54-.36-.936-1.227-.936h-1.352v2.35h1.32c.815 0 1.26-.417 1.26-.978v-.436zm.64 5.625c-.197 0-.382-.094-.517-.355-.433-.935-.96-1.86-1.526-2.775h-1.177v2.536c0 .334-.258.594-.588.594-.32 0-.587-.26-.587-.594v-6.487c0-.322.268-.592.587-.592h1.96c1.63 0 2.382.81 2.382 2.048v.436c0 .842-.454 1.56-1.34 1.84.505.832.97 1.664 1.36 2.507.218.467-.174.842-.555.842zM341.016 104.507h-1.752v5.937c0 .333-.268.593-.59.593-.328 0-.586-.26-.586-.593v-5.937h-1.764c-.31 0-.567-.25-.567-.57 0-.313.257-.573.567-.573h4.692c.32 0 .568.26.568.572 0 .32-.248.57-.568.57M347.203 111.037c-.247 0-.433-.084-.567-.292l-3.032-5.02v4.77c0 .302-.237.542-.536.542-.3 0-.547-.24-.547-.54v-6.676c0-.3.228-.55.58-.55.246 0 .443.104.576.312l3.022 5.012v-4.773c0-.3.248-.55.547-.55.288 0 .536.25.536.55v6.676c0 .29-.226.54-.577.54M353.462 110.943h-3.476c-.31 0-.556-.25-.556-.56v-6.447c0-.312.246-.573.556-.573h3.33c.31 0 .56.26.56.573 0 .31-.25.562-.56.562h-2.71v2.11h2.464c.3 0 .537.248.537.55 0 .302-.238.552-.537.552h-2.465v2.11h2.857c.31 0 .557.25.557.562 0 .31-.248.56-.558.56M358.968 105.412c0-.54-.36-.936-1.227-.936h-1.35v2.35h1.32c.814 0 1.258-.417 1.258-.978v-.436zm.64 5.625c-.196 0-.382-.094-.516-.355-.433-.935-.96-1.86-1.527-2.775h-1.175v2.536c0 .334-.258.594-.588.594-.32 0-.588-.26-.588-.594v-6.487c0-.322.268-.592.588-.592h1.96c1.63 0 2.382.81 2.382 2.048v.436c0 .842-.454 1.56-1.34 1.84.505.832.97 1.664 1.36 2.507.217.467-.175.842-.556.842zM319.463 84.2c0-.483-.26-1.018-1.29-1.018h-1.303v2.508h1.427c.853 0 1.166-.472 1.166-.997V84.2zm-1.125 2.582h-1.468v2.424c0 .336-.26.598-.593.598-.323 0-.593-.262-.593-.598v-6.55c0-.324.27-.597.593-.597h1.978c1.8 0 2.395 1.09 2.395 2.12v.534c0 1.217-.844 2.068-2.312 2.068zM325.928 89.71h-3.477c-.312 0-.56-.252-.56-.567v-6.58c0-.326.27-.6.592-.6.333 0 .593.274.593.6v6.013h2.853c.312 0 .562.252.562.567 0 .315-.25.567-.562.567M329.572 83.854c-.386 1.007-.74 2.035-1.062 3.096h2.124c-.323-1.06-.678-2.09-1.062-3.096m2.27 5.95c-.25 0-.5-.148-.573-.472-.106-.44-.23-.882-.346-1.312h-2.706c-.126.43-.24.87-.343 1.312-.073.324-.313.472-.553.472-.333 0-.676-.283-.572-.724.54-2.31 1.238-4.418 2.07-6.486.22-.536.49-.64.762-.64.26 0 .562.116.77.64.833 2.068 1.53 4.177 2.072 6.486.104.44-.25.724-.583.724M337.994 83.214h-1.77v5.992c0 .336-.27.598-.593.598-.332 0-.592-.262-.592-.598v-5.992h-1.78c-.314 0-.574-.252-.574-.578 0-.314.26-.577.573-.577h4.737c.322 0 .573.262.573.576 0 .326-.25.578-.573.578M340.107 89.804c-.322 0-.593-.262-.593-.598v-6.644c0-.325.27-.598.593-.598.334 0 .593.273.593.598v6.644c0 .336-.26.598-.593.598M347.093 89.804c-.25 0-.438-.084-.573-.294l-3.06-5.07v4.818c0 .305-.24.546-.543.546-.302 0-.55-.24-.55-.546V82.52c0-.303.228-.556.582-.556.25 0 .447.106.582.316l3.05 5.057V82.52c0-.303.25-.556.553-.556.29 0 .54.253.54.557v6.738c0 .294-.23.546-.582.546M351.84 89.804c-1.822 0-2.655-1.165-2.655-2.58V82.56c0-.325.27-.598.594-.598.32 0 .58.273.58.598v4.62c0 .795.345 1.573 1.48 1.573s1.478-.778 1.478-1.574v-4.618c0-.325.26-.598.594-.598.322 0 .593.273.593.598v4.66c0 1.417-.833 2.582-2.665 2.582M362.625 89.248c0 .304-.25.556-.55.556-.302 0-.553-.252-.553-.556v-4.64l-1.676 3.56c-.104.23-.302.345-.53.345-.22 0-.428-.115-.543-.346l-1.665-3.558v4.65c0 .303-.25.544-.552.544-.292 0-.54-.24-.54-.545v-6.74c0-.314.248-.555.57-.555.293 0 .45.104.574.356l2.165 4.524 2.186-4.554c.126-.262.335-.325.553-.325.323 0 .562.25.562.556v6.728z"/></g></g></g></svg>